<svg width="28" height="28" viewBox="0 0 28 28" fill="none" xmlns="http://www.w3.org/2000/svg">
<path d="M27.5445 0.455543C26.9371 -0.151848 25.9523 -0.151848 25.345 0.455543L14 11.8005L2.65507 0.455543C2.04769 -0.151848 1.06292 -0.151848 0.455544 0.455543C-0.151848 1.06292 -0.151848 2.04769 0.455544 2.65506L11.8005 14L0.455575 25.3448C-0.151817 25.9523 -0.151817 26.937 0.455575 27.5445C1.06295 28.1518 2.04772 28.1518 2.6551 27.5445L14 16.1995L25.345 27.5445C25.9523 28.1518 26.9371 28.1518 27.5445 27.5445C28.1518 26.937 28.1518 25.9523 27.5445 25.345L16.1995 14L27.5445 2.65506C28.1518 2.04769 28.1518 1.06292 27.5445 0.455543Z" fill="#0C0B0C"/>
</svg>
