<svg viewBox="0 0 20 16" fill="none" xmlns="http://www.w3.org/2000/svg">
<path fill-rule="evenodd" clip-rule="evenodd" d="M2.85978 2.3136C2.93157 2.2968 3.0064 2.28792 3.08331 2.28792H16.7651C16.842 2.28792 16.9169 2.2968 16.9886 2.3136L9.92422 7.52362L2.85978 2.3136ZM2.10603 4.18631V13.0379C2.10603 13.5777 2.54357 14.0152 3.08331 14.0152H16.7651C17.3049 14.0152 17.7424 13.5777 17.7424 13.0379V4.18631L10.5043 9.52443C10.1594 9.77878 9.68904 9.77878 9.34416 9.52443L2.10603 4.18631ZM3.08331 0.333374C1.46411 0.333374 0.151489 1.64599 0.151489 3.26519V13.0379C0.151489 14.6571 1.46411 15.9697 3.08331 15.9697H16.7651C18.3843 15.9697 19.6969 14.6571 19.6969 13.0379V3.26519C19.6969 1.64599 18.3843 0.333374 16.7651 0.333374H3.08331Z" fill="currentColor"/>
</svg>
