<svg width="27" height="28" viewBox="0 0 27 28" fill="none" xmlns="http://www.w3.org/2000/svg">
<path d="M26.66 14.3068C26.66 13.3495 26.5741 12.4291 26.4145 11.5454H13.7V16.7675H20.9654C20.6525 18.455 19.7014 19.8848 18.2716 20.842V24.2293H22.6345C25.1872 21.8791 26.66 18.4181 26.66 14.3068Z" fill="#4285F4"/>
<path d="M13.7 27.5C17.345 27.5 20.4009 26.2911 22.6344 24.2294L18.2715 20.8421C17.0627 21.6521 15.5163 22.1306 13.7 22.1306C10.1838 22.1306 7.20772 19.7559 6.14608 16.565H1.63586V20.0627C3.85729 24.4748 8.42272 27.5 13.7 27.5Z" fill="#34A853"/>
<path d="M6.14602 16.565C5.87602 15.755 5.72267 14.8898 5.72267 14C5.72267 13.1102 5.87602 12.245 6.14602 11.435V7.93726H1.63581C0.721591 9.75976 0.199951 11.8216 0.199951 14C0.199951 16.1783 0.721591 18.2402 1.63581 20.0627L6.14602 16.565Z" fill="#FBBC04"/>
<path d="M13.7 5.86935C15.6819 5.86935 17.4615 6.55043 18.8606 7.88815L22.7327 4.01607C20.3948 1.83771 17.3388 0.5 13.7 0.5C8.42272 0.5 3.85729 3.52522 1.63586 7.93728L6.14608 11.435C7.20772 8.24414 10.1838 5.86935 13.7 5.86935Z" fill="#E94235"/>
</svg>
