<svg  viewBox="0 0 20 22" fill="none" xmlns="http://www.w3.org/2000/svg">
<path d="M13.3991 21.5755H6.44936C4.51664 21.5755 3.45239 21.5755 2.523 21.1211C1.70456 20.7228 1.03965 20.0845 0.624815 19.2988C0.151489 18.4066 0.151489 17.3849 0.151489 15.5295V14.0701C0.151489 12.215 0.151489 11.193 0.624815 10.3008C1.03983 9.51519 1.70469 8.87693 2.523 8.47851C2.80351 8.34241 3.10141 8.24221 3.40906 8.18049V6.98181C3.40906 3.53307 6.33176 0.727295 9.92422 0.727295C13.5167 0.727295 16.4394 3.53307 16.4394 6.98181V8.18049C16.747 8.24201 17.0449 8.342 17.3254 8.47789C18.1437 8.8763 18.8086 9.51457 19.2236 10.3001C19.6969 11.1927 19.6969 12.2146 19.6969 14.0701V15.5295C19.6969 17.3849 19.6969 18.4066 19.2236 19.2988C18.8088 20.0845 18.1439 20.7228 17.3254 21.1211C16.3964 21.5755 15.3318 21.5755 13.3991 21.5755ZM4.55215 10.1375C4.04397 10.1688 3.73156 10.2273 3.50972 10.3361C3.10052 10.5354 2.76804 10.8546 2.56047 11.2474C2.32397 11.6933 2.32397 12.5374 2.32397 14.0701V15.5295C2.32397 17.0619 2.32397 17.9063 2.56047 18.3525C2.76805 18.7453 3.10054 19.0643 3.50972 19.2635C3.97425 19.4908 4.85347 19.4908 6.45001 19.4908H13.3991C14.9953 19.4908 15.8748 19.4908 16.3394 19.2635C16.7485 19.0643 17.081 18.7453 17.2886 18.3525C17.5251 17.9063 17.5251 17.0619 17.5251 15.5295V14.0701C17.5251 12.5377 17.5251 11.6933 17.2886 11.2474C17.0811 10.8546 16.7487 10.5355 16.3397 10.3361C16.1169 10.2273 15.8045 10.1679 15.2973 10.1375H15.278C14.8005 10.11 14.1819 10.11 13.4001 10.11H6.44936C5.66754 10.11 5.0486 10.11 4.57137 10.1375H4.55215ZM6.44936 8.02412H13.3991C13.7125 8.02412 14.0007 8.02412 14.2675 8.026V6.98181C14.2675 4.68265 12.3192 2.81192 9.92422 2.81192C7.52925 2.81192 5.58089 4.68265 5.58089 6.98181V8.026C5.84769 8.02412 6.13598 8.02412 6.44936 8.02412ZM9.92422 16.8846C9.63626 16.8846 9.36009 16.7748 9.15648 16.5793C8.95286 16.3838 8.83847 16.1187 8.83847 15.8423V13.7573C8.83847 13.4809 8.95286 13.2158 9.15648 13.0203C9.36009 12.8248 9.63626 12.715 9.92422 12.715C10.2122 12.715 10.4883 12.8248 10.692 13.0203C10.8956 13.2158 11.01 13.4809 11.01 13.7573V15.8423C11.01 16.1187 10.8956 16.3838 10.692 16.5793C10.4883 16.7748 10.2122 16.8846 9.92422 16.8846Z" fill="currentColor"/>
</svg>
