<svg width="21" height="22" viewBox="0 0 21 22" fill="none" xmlns="http://www.w3.org/2000/svg">
<path fill-rule="evenodd" clip-rule="evenodd" d="M10.5758 4.98488C8.77666 4.98488 7.31819 6.44335 7.31819 8.24246C7.31819 10.0416 8.77666 11.5 10.5758 11.5C12.3749 11.5 13.8333 10.0416 13.8333 8.24246C13.8333 6.44335 12.3749 4.98488 10.5758 4.98488ZM5.36365 8.24246C5.36365 5.36388 7.69719 3.03033 10.5758 3.03033C13.4543 3.03033 15.7879 5.36388 15.7879 8.24246C15.7879 11.121 13.4543 13.4546 10.5758 13.4546C7.69719 13.4546 5.36365 11.121 5.36365 8.24246Z" fill="#949394"/>
<path fill-rule="evenodd" clip-rule="evenodd" d="M10.5757 13.4545C6.9116 13.4545 4.71211 16.2431 4.71211 18.9924C4.71211 19.5322 4.27457 19.9697 3.73484 19.9697C3.19511 19.9697 2.75757 19.5322 2.75757 18.9924C2.75757 15.2266 5.7702 11.5 10.5757 11.5C15.3813 11.5 18.3939 15.2266 18.3939 18.9924C18.3939 19.5322 17.9564 19.9697 17.4167 19.9697C16.8769 19.9697 16.4394 19.5322 16.4394 18.9924C16.4394 16.2431 14.2399 13.4545 10.5757 13.4545Z" fill="#949394"/>
</svg>
