<svg width="22" height="22" viewBox="0 0 22 22" fill="none" xmlns="http://www.w3.org/2000/svg">
<path fill-rule="evenodd" clip-rule="evenodd" d="M20.9253 4.63161C21.2014 3.28534 19.8791 2.16657 18.5972 2.66187L2.88335 8.73313C1.45177 9.28624 1.38798 11.2881 2.78144 11.9312L6.20347 13.5106L7.83138 19.2083C7.91594 19.5042 8.15079 19.7334 8.44874 19.8106C8.74669 19.8878 9.06326 19.8016 9.2809 19.5839L11.7885 17.0763L15.3012 19.7108C16.3209 20.4755 17.7895 19.9185 18.0456 18.6699L20.9253 4.63161ZM3.5095 10.3537L19.2234 4.28249L16.3437 18.3209L12.2282 15.2343C11.8824 14.9749 11.3985 15.0093 11.0928 15.315L10.0187 16.389L10.3415 14.6142L16.6647 8.29099C16.9725 7.98325 17.005 7.4953 16.7408 7.14945C16.4766 6.80359 15.9974 6.70658 15.6195 6.9225L6.8869 11.9125L3.5095 10.3537ZM7.95166 13.3051L8.47842 15.1488L8.68065 14.0365C8.71227 13.8626 8.79614 13.7025 8.92108 13.5776L10.8495 11.6493L7.95166 13.3051Z" fill="#949394"/>
</svg>
